<svg xmlns="http://www.w3.org/2000/svg" xmlns:xlink="http://www.w3.org/1999/xlink" x="0px" y="0px"
	 viewBox="-149 151 100 100">
<path fill="#0064e6" d="M-85.3,227.8c-3.2,1-6.4,2-9.6,3.1c-3.2,1.1-6.2,1.6-9,1.6c-2.8,0-5-0.7-6.6-2s-2.4-3.4-2.4-6.2c0-1.1,0.1-2,0.2-2.7
	c-1.1-0.5-1.8-1.4-2.4-2.6c-0.5-1.2-0.8-2.4-0.8-3.6s0.3-2.3,0.9-3.3c-1.8-1.6-2.6-3.6-2.6-5.9c0.1-0.8,0.2-1.7,0.5-2.7
	c0.3-1,0.7-1.8,1.2-2.3h-16.3c-1.6,0-3.1-0.6-4.4-1.8c-1.3-1.2-1.9-2.7-1.9-4.4c0-1.6,0.6-3.1,1.9-4.4c1.3-1.3,2.8-1.9,4.4-1.9h28.3
	c-0.1-0.6-0.3-1.4-0.7-2.4c-0.4-0.9-0.9-1.8-1.6-2.7s-1.2-2-1.7-3.3s-0.7-2.7-0.7-4.1c0.1-2.2,0.8-3.8,2.2-4.8
	c1.4-1,3.3-1.5,5.6-1.5c0.3,0,0.6,0.2,0.9,0.5c0.3,0.4,0.6,0.9,1.1,1.5c0.4,0.6,0.8,1.2,1.1,1.8c0.3,0.5,0.6,1.1,0.9,1.8
	c0.3,0.6,0.5,1,0.5,1.1c0.8,1.5,1.4,2.6,1.8,3.3c1.3,2.1,3.1,4.4,5.5,7.1c0.2,0.1,0.4,0.3,0.6,0.6c0.9,1.2,1.7,2.1,2.4,2.7
	c0.6,0.6,1.5,1.4,2.5,2.2c1,0.8,2,1.4,3.1,1.8s2.2,0.6,3.3,0.6h1.6v31.4h-1.6C-79.4,226.2-82.1,226.8-85.3,227.8z M-63.9,225.2
	c-0.6,0.6-1.4,0.9-2.2,1c-0.8,0.1-1.6-0.3-2.2-1c-0.6-0.7-1-1.4-1-2.2c0-0.8,0.3-1.5,1-2.2c0.6-0.7,1.4-1,2.2-1s1.6,0.4,2.2,1
	c0.6,0.6,1,1.3,1,2.2S-63.3,224.6-63.9,225.2z M-58.5,190.3c-1.2-1.2-2.7-1.8-4.4-1.8h-14.2c-0.5,0.1-0.8,0-1.1-0.2
	c-0.2-0.2-0.6-0.4-1.1-0.7c-0.5-0.3-0.9-0.6-1.1-0.9c-0.2-0.3-0.6-0.7-1.1-1.1c-0.5-0.5-0.9-0.8-1.1-1.1c-0.2-0.2-0.5-0.6-0.9-1.1
	s-0.6-0.7-0.7-0.8c-2.1-2.5-3.8-4.6-4.9-6.3c-0.4-0.7-0.9-1.7-1.6-3.1s-1.3-2.5-1.8-3.5c-0.5-1-1.2-2-1.9-3.1
	c-0.8-1.1-1.7-1.9-2.7-2.5c-1.1-0.6-2.2-0.9-3.4-0.9c-4.1,0.1-7.4,1.2-10.1,3.3c-2.7,2.2-4.1,5.3-4.1,9.2c0,2.2,0.4,4.3,1.1,6.3
	h-18.4c-3.5,0-6.4,1.2-8.9,3.7c-2.5,2.5-3.7,5.4-3.7,8.8c0,3.5,1.2,6.4,3.7,8.9s5.4,3.7,8.9,3.7h8.3c0.1,2.1,0.7,4,1.8,5.9
	c-0.1,0.7-0.2,1.4-0.2,2.1c0,3.3,1,6.3,3,8.7v0.3c-0.1,4.5,1.4,8.1,4.2,10.7c2.9,2.6,6.7,3.9,11.4,3.9c4.1,0,9.3-1.1,15.5-3.4
	c5.4-1.9,9.1-2.9,11-2.9h14.2c1.7,0,3.2-0.6,4.4-1.8s1.8-2.7,1.8-4.4v-31.4C-56.7,193-57.3,191.5-58.5,190.3z"/>
</svg>
